<svg xmlns="http://www.w3.org/2000/svg" xmlns:xlink="http://www.w3.org/1999/xlink" width="64" height="64" viewBox="0 0 64 64" fill="none">
    <path     fill="#FEF7FF"  d="M18 -5.63338e-15L46 -5.63338e-15C55.9411 -5.63338e-15 64 8.05887 64 18L64 46C64 55.9411 55.9411 64 46 64L18 64C8.05887 64 -1.02762e-14 55.9411 -8.45006e-15 46L2.81669e-15 18C3.42541e-15 8.05887 8.05887 -6.85081e-15 18 -5.63338e-15Z">
    </path>
    <g >
        <path     fill="#65558F"  d="M30.408 13.48Q35.544 13.48 39.696 15.544Q43.848 17.608 46.248 21.568Q48.648 25.528 48.648 31Q48.648 36.472 46.248 40.456Q43.848 44.44 39.72 46.528Q35.592 48.616 30.408 48.616L18.696 48.616L18.696 13.48L30.408 13.48ZM29.592 42.664Q35.256 42.664 38.28 39.64Q41.304 36.616 41.304 31Q41.304 25.48 38.256 22.432Q35.208 19.384 29.592 19.384L25.656 19.384L25.656 42.664L29.592 42.664Z">
        </path>
    </g>
</svg>
